<svg width="25" height="24" viewBox="0 0 25 24" fill="none" xmlns="http://www.w3.org/2000/svg">
<g clip-path="url(#clip0_284_1292)">
<path d="M23.8467 3.8161L20.7714 0.232039C20.7656 0.225258 20.7595 0.218706 20.7532 0.212398C20.4846 -0.0561489 20.0492 -0.0720395 19.7618 0.176117L17.3113 2.29201C17.2396 2.35355 17.1809 2.42872 17.1384 2.51315C17.096 2.59758 17.0707 2.6896 17.0641 2.78387C17.0569 2.87809 17.0686 2.97278 17.0982 3.06249C17.1279 3.15219 17.1751 3.23512 17.237 3.30648L17.333 3.41762L17.1749 3.55412C16.7554 3.91641 16.1241 4.02479 15.4864 3.8439C15.4734 3.84024 13.6585 3.32518 13.6454 3.32213C13.3146 3.24526 12.4587 3.12385 11.6414 3.6512C11.6282 3.65874 6.94503 6.33915 6.93232 6.34744C6.50487 6.62593 5.90946 7.32212 6.3896 8.16493C6.39148 8.16821 6.3934 8.17144 6.39537 8.17468C6.6011 8.51021 6.89773 8.70999 7.2439 8.76544C7.25679 9.10946 7.40998 9.43918 7.68256 9.6751C8.2122 10.1335 9.01629 10.0756 9.47478 9.54591L11.2105 7.54041C11.2805 7.45956 11.3398 7.37016 11.3873 7.27435L11.4589 7.24482C11.5525 7.59568 11.8083 7.94494 12.331 8.09312C14.5088 8.71079 14.9621 8.88971 15.5719 8.8223C17.2717 8.6401 17.6613 8.58437 18.5174 8.09162C19.1332 7.73719 19.7326 7.32287 20.3034 6.85796L20.4078 6.97885C20.668 7.28012 21.122 7.31251 21.4223 7.05315L23.755 5.03898C24.1164 4.72698 24.1574 4.1784 23.8467 3.8161ZM8.94312 9.0856C8.59146 9.49187 7.92776 9.22252 7.94717 8.69555L10.0245 7.83619L8.94312 9.0856ZM18.1667 7.4821C17.4383 7.90135 17.1931 7.94119 15.5043 8.12227C15.0417 8.17187 14.6793 8.02819 12.5229 7.41657C12.2466 7.33824 12.1745 7.19054 12.1443 7.08629C12.103 6.94384 12.1294 6.80771 12.1293 6.80771C12.1296 6.80607 12.1297 6.80443 12.1301 6.80279C12.1307 6.79974 12.1316 6.79679 12.1322 6.79374C12.1324 6.79285 12.1544 6.69887 12.215 6.61707C12.2674 6.54638 12.3463 6.47752 12.535 6.50358C13.2003 6.59513 14.7846 6.80696 14.8005 6.80912C14.8463 6.81527 14.8928 6.81235 14.9374 6.8005C14.9821 6.78865 15.0239 6.76812 15.0606 6.74008C15.0973 6.71204 15.1281 6.67703 15.1513 6.63707C15.1745 6.59711 15.1895 6.55298 15.1956 6.50719C15.2017 6.46143 15.1988 6.41491 15.1869 6.37028C15.1751 6.32565 15.1545 6.2838 15.1265 6.24711C15.0985 6.21042 15.0635 6.17961 15.0235 6.15644C14.9836 6.13328 14.9395 6.1182 14.8937 6.11209C14.8778 6.10998 13.2949 5.89834 12.6309 5.80698C12.0093 5.72134 11.643 6.10519 11.4987 6.46782L10.9858 6.67927C6.93823 8.34816 7.85074 7.98587 7.55032 8.07259C6.98492 8.15194 6.59749 7.41615 7.30849 6.94182L11.9986 4.25705L11.9996 4.25654C12.0053 4.25326 12.0109 4.24984 12.0164 4.24627C12.6036 3.86396 13.2288 3.94852 13.4784 4.00538L15.2945 4.52054C16.1605 4.76607 17.0354 4.60379 17.6345 4.08648L17.7926 3.94998L19.8439 6.32569C19.307 6.76159 18.7442 7.14971 18.1667 7.4821ZM23.2955 4.50666C23.288 4.51309 20.9609 6.5259 20.9511 6.52473C20.9377 6.52374 17.7499 2.84246 17.7709 2.82432L20.2213 0.708382H20.2214C20.2255 0.704819 20.2307 0.702684 20.2361 0.702296C20.2416 0.701907 20.247 0.703286 20.2516 0.706226L23.3129 4.27407C23.3413 4.30727 23.3554 4.35037 23.3522 4.39395C23.3489 4.43753 23.3285 4.47805 23.2955 4.50666ZM17.8244 15.2508C17.782 14.117 16.3512 13.5949 15.5936 14.4704L13.8577 16.476C13.7878 16.5568 13.7284 16.6462 13.6811 16.742L13.6094 16.7715C13.5159 16.4206 13.2601 16.0714 12.7374 15.9232C10.4319 15.2693 10.1314 15.1382 9.50327 15.1934C9.50102 15.1936 9.49877 15.1938 9.49653 15.194C7.79665 15.3763 7.40703 15.432 6.5509 15.9247C5.93506 16.2792 5.33571 16.6935 4.76496 17.1585L4.66057 17.0376C4.40126 16.7373 3.94615 16.704 3.64601 16.9633L1.18624 19.087C0.893276 19.3399 0.862667 19.7822 1.1179 20.0732L4.35968 23.7676C4.60235 24.0441 5.02451 24.0787 5.30004 23.8457L5.30656 23.8402L7.75704 21.7242C8.05793 21.4644 8.09126 21.0106 7.83139 20.7097L7.73543 20.5986L7.89349 20.4621C8.31303 20.0998 8.94443 19.9915 9.58207 20.1723L11.2125 20.6348C11.3993 20.6876 11.5938 20.5793 11.6468 20.3925C11.6594 20.3481 11.6631 20.3016 11.6577 20.2558C11.6524 20.2099 11.638 20.1655 11.6155 20.1252C11.593 20.0849 11.5628 20.0494 11.5266 20.0208C11.4904 19.9921 11.4489 19.9709 11.4044 19.9583L9.77393 19.4958C8.90787 19.2503 8.03309 19.4125 7.43393 19.9299L7.27587 20.0663L5.22453 17.6906C5.76129 17.2547 6.32412 16.8666 6.90167 16.5341C7.63067 16.1146 7.87545 16.075 9.56801 15.8936C9.96368 15.8591 10.211 15.9304 11.5674 16.3201C12.6184 16.6219 12.8353 16.6235 12.9241 16.9299C12.9654 17.0724 12.939 17.2085 12.9391 17.2085C12.9218 17.2841 12.8893 17.3507 12.8534 17.3992C12.801 17.4699 12.7218 17.5387 12.5335 17.5127C11.8681 17.4211 10.2838 17.2093 10.2679 17.2072C10.2222 17.201 10.1756 17.204 10.131 17.2158C10.0864 17.2277 10.0445 17.2482 10.0078 17.2762C9.97112 17.3043 9.94031 17.3393 9.91715 17.3792C9.89399 17.4192 9.87893 17.4633 9.87284 17.5091C9.86671 17.5549 9.86966 17.6014 9.88152 17.646C9.89337 17.6906 9.9139 17.7325 9.94193 17.7692C9.96997 17.8059 10.005 17.8367 10.0449 17.8598C10.0848 17.883 10.1289 17.8981 10.1747 17.9042C10.1907 17.9063 11.7736 18.1179 12.4376 18.2093C12.9867 18.285 13.3939 17.9895 13.5695 17.5486C13.5871 17.5413 17.1102 16.0892 17.1272 16.0808C17.4985 15.8922 17.8493 15.8491 18.0705 16.2042C18.3251 16.6591 17.8736 16.9986 17.7599 17.0745L13.0698 19.7592L13.0636 19.7628C13.0597 19.7651 13.0559 19.7675 13.0521 19.77C12.9736 19.821 12.8913 19.8657 12.8059 19.9038C12.7637 19.9227 12.7257 19.9496 12.6939 19.9831C12.6622 20.0167 12.6373 20.0561 12.6208 20.0993C12.6044 20.1424 12.5965 20.1883 12.5978 20.2345C12.5991 20.2807 12.6094 20.3261 12.6282 20.3683C12.6471 20.4104 12.674 20.4485 12.7075 20.4802C12.7411 20.512 12.7805 20.5368 12.8236 20.5533C12.8668 20.5698 12.9127 20.5776 12.9589 20.5764C13.005 20.5751 13.0505 20.5647 13.0926 20.5459C13.2087 20.4941 13.3206 20.4336 13.4274 20.3647C13.4413 20.3567 18.1226 17.6775 18.136 17.6687C19.4112 16.8384 18.7978 15.4066 17.8244 15.2508ZM7.29917 21.1693C7.30061 21.1708 7.30171 21.1727 7.30238 21.1747C7.30305 21.1767 7.30328 21.1788 7.30306 21.1809C7.30226 21.1913 4.88042 23.279 4.87263 23.2857L1.6512 19.6147L4.10562 17.4954C4.10717 17.4939 4.10901 17.4928 4.11102 17.4922C4.11302 17.4915 4.11514 17.4913 4.11724 17.4915C4.12395 17.492 4.12699 17.4955 4.12826 17.497L7.29917 21.1693ZM15.0439 16.18L16.1253 14.9305C16.4726 14.5293 17.1408 14.7868 17.1212 15.3206L15.0439 16.18Z" fill="#75C6B2"/>
<path d="M12.1318 10.9257C12.1976 11.0417 12.3918 11.1972 12.6213 11.1916C12.8112 11.1872 12.987 11.074 13.0822 10.9207C13.5351 10.193 14.4826 10.357 14.7655 11.0194C14.803 11.1039 14.8722 11.1701 14.9582 11.2039C15.0442 11.2377 15.14 11.2363 15.2249 11.2001C15.3099 11.1638 15.3772 11.0955 15.4122 11.01C15.4473 10.9246 15.4473 10.8287 15.4122 10.7432C14.932 9.61909 13.4009 9.36442 12.6071 10.375C11.6448 9.14205 9.66725 9.84245 9.6687 11.3917C9.67039 13.0205 11.0807 14.2662 12.4001 14.8889C12.4657 14.9198 12.5373 14.9358 12.6098 14.9357C12.6823 14.9357 12.7539 14.9195 12.8194 14.8885C13.768 14.4385 14.7765 13.6398 15.2432 12.6754C15.2633 12.6339 15.2751 12.5888 15.2777 12.5427C15.2804 12.4966 15.274 12.4504 15.2588 12.4068C15.2437 12.3632 15.2201 12.323 15.1894 12.2885C15.1587 12.254 15.1215 12.2259 15.0799 12.2058C15.0383 12.1857 14.9932 12.1739 14.9471 12.1712C14.901 12.1685 14.8549 12.175 14.8112 12.1901C14.7676 12.2053 14.7274 12.2289 14.6929 12.2596C14.6585 12.2903 14.6304 12.3275 14.6103 12.3691C14.23 13.1549 13.3877 13.8162 12.6087 14.2087C11.5113 13.666 10.3733 12.6563 10.372 11.391C10.3711 10.4368 11.6516 10.0807 12.1318 10.9257Z" fill="#75C6B2"/>
</g>
<defs>
<clipPath id="clip0_284_1292">
<rect width="24" height="24" fill="white" transform="translate(0.5)"/>
</clipPath>
</defs>
</svg>
