<svg width="141" height="140" viewBox="0 0 141 140" fill="none" xmlns="http://www.w3.org/2000/svg">
<g clip-path="url(#clip0_52_176)">
<path d="M92.4661 140H13.3882C6.41992 140 0.5 134.379 0.5 127.112V30.4609C0.5 23.1787 6.43168 17.573 13.3882 17.573H92.4661C99.422 17.573 105.354 23.1785 105.354 30.4609V127.112C105.354 134.379 99.4349 140 92.4661 140Z" fill="#FFAF45"/>
<path d="M105.354 127.112V30.4609C105.354 23.1782 99.4221 17.573 92.4658 17.573H52.9268V140H92.4658C99.4347 140 105.354 134.379 105.354 127.112Z" fill="#FF7845"/>
<path d="M13.3882 25.7761C10.837 25.7761 8.70312 27.8261 8.70312 30.4609V127.112C8.70312 129.715 10.819 131.797 13.3882 131.797H92.4661C95.0391 131.797 97.1511 129.712 97.1511 127.112V30.4609C97.1511 27.8272 95.0183 25.7761 92.4661 25.7761H13.3882Z" fill="#F4FBFF"/>
<path d="M97.1509 127.112V30.4609C97.1509 27.8272 95.0181 25.7761 92.4658 25.7761H52.9268V131.797H92.4658C95.0389 131.797 97.1509 129.712 97.1509 127.112Z" fill="#D2EDFF"/>
<path d="M66.107 8.78637H65.1464C63.4295 3.6843 58.6005 0 52.927 0C47.2534 0 42.4245 3.68402 40.7076 8.78637H39.7473C32.7916 8.78637 26.8594 14.3918 26.8594 21.6743C26.8594 28.7807 32.6409 34.5622 39.7473 34.5622H66.1067C73.0741 34.5622 78.9946 28.9417 78.9946 21.6743C78.9946 14.3921 73.0632 8.78637 66.107 8.78637Z" fill="#D2EDFF"/>
<path d="M78.9944 21.6746C78.9944 14.3921 73.0627 8.78664 66.1064 8.78664H65.1459C63.4292 3.6843 58.6003 0 52.9268 0V34.5625H66.1064C73.0739 34.5625 78.9944 28.942 78.9944 21.6746Z" fill="#B0DFFF"/>
<rect x="21" y="45" width="64" height="2" fill="#002454"/>
<rect x="21" y="63" width="64" height="2" fill="#002454"/>
<rect x="21" y="81" width="64" height="2" fill="#002454"/>
<rect x="21" y="99" width="64" height="2" fill="#002454"/>
<rect x="21" y="117" width="64" height="2" fill="#002454"/>
<path d="M130.961 130.484C143.649 117.797 143.649 97.2263 130.961 84.5388C118.274 71.8512 97.7033 71.8512 85.0158 84.5388C72.3283 97.2263 72.3283 117.797 85.0158 130.484C97.7033 143.172 118.274 143.172 130.961 130.484Z" fill="#AAFF4F"/>
<path d="M108.012 140V75.0233C125.926 75.0233 140.5 89.5973 140.5 107.512C140.5 125.426 125.926 140 108.012 140Z" fill="#55E373"/>
<path d="M97.5 111L102.733 114.925C103.162 115.246 103.768 115.173 104.107 114.758L117 99" stroke="#111111" stroke-width="2" stroke-linecap="round"/>
</g>
<defs>
<clipPath id="clip0_52_176">
<rect width="140" height="140" fill="white" transform="translate(0.5)"/>
</clipPath>
</defs>
</svg>
