<svg width="36" height="36" viewBox="0 0 36 36" fill="none" xmlns="http://www.w3.org/2000/svg">
<g clip-path="url(#clip0_371_83)">
<path d="M32.8877 0H12.5445C10.9756 0 9.69926 1.27636 9.69926 2.8426L9.69427 4.91304C8.82785 5.2948 8.02287 5.82417 7.31117 6.49018C4.0826 9.51146 3.744 14.4807 6.40996 17.9042L0.576161 23.738C0.164392 24.1498 0.164392 24.8174 0.576161 25.2291C0.782045 25.435 1.0519 25.538 1.32168 25.538C1.59146 25.538 1.86138 25.4351 2.06719 25.2291L7.90035 19.396C8.45309 19.8262 9.05737 20.1858 9.69919 20.4663V33.1549C9.69919 34.7237 10.9755 36.0001 12.5444 36.0001H32.8877C34.4564 36.0001 35.7328 34.7237 35.7328 33.1549V2.8452C35.7328 1.27636 34.4565 0 32.8877 0ZM6.73372 12.4796C6.79023 10.7753 7.50707 9.19508 8.75208 8.02992C9.42182 7.40313 10.2014 6.93695 11.0439 6.64862C11.0567 6.64489 11.0693 6.64067 11.0818 6.63646C11.7352 6.41778 12.4198 6.30653 13.1088 6.30707C13.1808 6.30707 13.2533 6.30826 13.3256 6.31065C15.0299 6.36717 16.6101 7.08393 17.7753 8.32908C18.9404 9.57409 19.551 11.1984 19.4945 12.9027C19.438 14.607 18.7211 16.1872 17.4761 17.3524C16.231 18.5175 14.606 19.1281 12.9025 19.0716C12.2854 19.0515 11.6745 18.9424 11.0886 18.7475C11.0757 18.7431 11.0627 18.739 11.0496 18.7351C10.0694 18.4018 9.18022 17.8304 8.45285 17.0532C7.28769 15.8081 6.67721 14.1838 6.73372 12.4796ZM33.624 33.1549C33.624 33.5609 33.2937 33.8913 32.8877 33.8913H12.5445C12.1384 33.8913 11.808 33.5609 11.808 33.1549V21.079C12.2411 21.1461 12.6786 21.1798 13.1168 21.18C15.1971 21.1799 17.2819 20.4223 18.9171 18.8922C20.5734 17.3422 21.527 15.24 21.6022 12.9727C21.6773 10.7055 20.8652 8.54467 19.3151 6.88831C17.7651 5.23196 15.6629 4.27838 13.3956 4.20317C12.8635 4.18538 12.3308 4.21717 11.8046 4.29813L11.8081 2.8452C11.8081 2.43912 12.1385 2.10875 12.5445 2.10875H32.8878C33.2938 2.10875 33.6242 2.43912 33.6242 2.8452V33.1549H33.624Z" fill="#002454"/>
<path d="M29.8306 31.5388C30.4129 31.5388 30.885 31.0668 30.885 30.4845V26.9026C30.885 25.9841 30.1377 25.2368 29.2192 25.2368H26.1491V23.5385C26.1491 22.5265 25.3258 21.7031 24.3138 21.7031H20.9519C20.028 21.7031 19.2764 22.4548 19.2764 23.3787V23.5613H16.2871C15.3235 23.5613 14.5396 24.3453 14.5396 25.3089V30.4844C14.5396 31.0667 15.0116 31.5388 15.5939 31.5388H29.8306V31.5388ZM19.2755 29.4301H16.6483V25.67H19.2755V29.4301ZM21.3851 23.8119H24.0403V29.4301H21.3851V23.8119ZM28.7762 29.4301H26.1491V27.3456H28.7762V29.4301Z" fill="#002454"/>
</g>
<defs>
<clipPath id="clip0_371_83">
<rect width="36" height="36" fill="white"/>
</clipPath>
</defs>
</svg>
