<svg width="60" height="60" viewBox="0 0 60 60" fill="none" xmlns="http://www.w3.org/2000/svg">
<g clip-path="url(#clip0_36_97)">
<path d="M52.4785 1.22423C56.7632 1.22423 60.2499 4.70277 60.25 8.98009V14.8834C60.25 19.1609 56.7633 22.6402 52.4785 22.6402H34.6396V23.7125C36.9138 22.909 39.5019 24.0584 40.4287 26.2906C42.8212 25.212 45.675 26.3965 46.833 28.6617C48.3557 27.8864 50.0524 28.0977 51.3828 28.9049C52.7809 29.7531 53.7996 31.2733 53.7998 33.0397V43.5367C53.7998 52.0902 46.7503 58.776 38.2979 58.776C31.3316 58.7758 24.9555 54.0563 21.9736 47.9215C21.2875 46.5099 20.5412 45.1247 19.7969 43.7311C19.0534 42.3391 18.3124 40.9391 17.6406 39.5074H17.6396C16.5707 37.2214 17.4642 34.4855 19.6748 33.2779C21.4965 32.2827 23.7001 32.6153 25.1602 33.9459V22.6402H7.52148C3.23683 22.6402 -0.249776 19.1617 -0.25 14.8844V8.98009C-0.24977 4.70277 3.23684 1.22423 7.52148 1.22423H52.4785ZM29.8984 16.4186C28.9744 16.4194 28.2236 17.1687 28.2236 18.0865V21.0953L28.2246 21.108L28.2236 21.1207V39.3893L28.2109 39.4283C27.9662 40.1664 27.6086 40.6947 27.0762 40.8326C26.5437 40.9705 25.9747 40.6823 25.4023 40.1559L25.3721 40.1285L25.3525 40.0934L23.4326 36.6363C23.0093 35.8745 22.0793 35.5638 21.2979 35.8922L21.1436 35.9664C20.3584 36.3952 20.0362 37.3668 20.4062 38.1871C21.8549 40.9728 23.3523 43.7487 24.7295 46.5816C27.1093 51.4779 32.0935 55.4312 37.6016 55.6949C44.6787 56.0311 50.7354 50.7127 50.7354 43.5367V33.0397C50.7352 32.0411 49.9188 31.2272 48.9141 31.2272C48.0671 31.2274 47.379 31.9135 47.3789 32.7545V38.569C47.3789 39.0539 47.1887 39.4349 46.8916 39.691C46.5998 39.9425 46.2192 40.062 45.8477 40.0621C45.476 40.0621 45.0947 39.9426 44.8027 39.691C44.5056 39.4349 44.3154 39.0539 44.3154 38.569V30.942C44.3153 29.845 43.418 28.9508 42.3145 28.9508C41.4664 28.951 40.7774 29.6379 40.7773 30.4801V38.6022C40.7773 39.087 40.5871 39.4672 40.29 39.7233C39.9982 39.9748 39.6177 40.0953 39.2461 40.0953C38.8743 40.0953 38.4931 39.9749 38.2012 39.7233C37.9042 39.4672 37.7139 39.0869 37.7139 38.6022V28.0406C37.7137 27.1984 37.025 26.5114 36.1768 26.5113C35.3283 26.5113 34.6397 27.1984 34.6396 28.0406V38.5455C34.6395 39.0301 34.4492 39.4106 34.1523 39.6666C33.8604 39.9183 33.4792 40.0387 33.1074 40.0387C32.7357 40.0387 32.3544 39.9183 32.0625 39.6666C31.7657 39.4106 31.5753 39.0301 31.5752 38.5455V18.0865C31.5752 17.6931 31.3744 17.2738 31.0488 16.9479C30.7234 16.6222 30.3019 16.4186 29.8984 16.4186ZM7.52148 4.28868C4.92579 4.28868 2.81468 6.39393 2.81445 8.98009V14.8844C2.81468 17.4705 4.92578 19.5758 7.52148 19.5758H25.1602V18.0865C25.1602 15.4782 27.2857 13.3559 29.8975 13.3541C32.4238 13.3543 34.6396 15.5528 34.6396 18.0865V19.5758H52.4785C55.0742 19.5758 57.1853 17.4705 57.1855 14.8844V8.98009C57.1853 6.39393 55.0742 4.28868 52.4785 4.28868H7.52148Z" fill="#002454" stroke="#002454" stroke-width="0.5"/>
<path d="M52.8208 10.4001C53.6668 10.4001 54.353 11.0863 54.353 11.9324C54.3529 12.7783 53.6667 13.4646 52.8208 13.4646H7.30811C6.46214 13.4646 5.77597 12.7783 5.77588 11.9324C5.77588 11.0863 6.46209 10.4001 7.30811 10.4001H52.8208Z" fill="#002454" stroke="#002454" stroke-width="0.5"/>
</g>
<defs>
<clipPath id="clip0_36_97">
<rect width="60" height="60" fill="white"/>
</clipPath>
</defs>
</svg>
